<?xml version="1.0" encoding="utf-8"?>
<svg version="1.1" id="Flify_logo" xmlns="http://www.w3.org/2000/svg" xmlns:xlink="http://www.w3.org/1999/xlink" x="0px" y="0px"
	 viewBox="0 0 512 512" style="enable-background:new 0 0 512 512;" xml:space="preserve">
<style type="text/css">
	.st0{fill:#206AC4;}
</style>
<g>
	<path class="st0" d="M242.3,458.3c0-1.3,0-2.3,0-3.3c0-44.7,0-89.4,0-134.1c0-8.8,4.7-13.5,13.4-13.5c3.4,0,6.8,0,10.2,0
		c8,0,12.9,4.9,12.9,12.8c0,26.8,0,53.6,0,80.4c0,27.8,0,55.5,0,83.3c0,8.4-4.8,13.3-13.2,13.2c-10.7-0.2-21.3-0.2-32-0.8
		c-13.4-0.8-26.5-3.4-39.4-6.8c-17.8-4.7-34.8-11.4-51-20c-23.5-12.5-44.4-28.4-62.7-47.8c-21.5-22.8-38-48.8-49.4-78
		c-7.3-18.8-12.1-38.2-14.6-58.2c-2.2-18.1-2.4-36.3-0.5-54.4c2.6-25,8.9-49.1,19.1-72.1C49.6,126.2,70.3,98,97.2,74.4
		C120.6,54,147,38.6,176.4,28.3c30.9-10.8,62.6-15.1,95.2-13c45.3,3,86.7,17.5,123.7,43.8c35.6,25.2,62.5,57.8,80.6,97.6
		c10.2,22.4,16.7,45.8,19.6,70.3c2.7,22.4,2.4,44.7-1.1,66.9c-6.8,42.6-23.8,80.7-50.9,114.2c-24.2,29.8-53.8,52.6-88.8,68.3
		c-8.2,3.7-16.7,6.6-25.2,9.7c-5.7,2-13.9-0.6-17.7-5.8c-3.5-4.6-5.5-10-5.4-15.9c0.1-7.3,5.1-13.2,13.4-15.9
		c34.5-11.3,63.7-30.8,87.9-57.8c15.5-17.3,27.6-36.9,36.3-58.4c5.2-12.8,9.1-26.1,11.6-39.7c2.6-14.9,4.2-29.9,3-45.1
		c-0.8-10.7-1.8-21.4-3.9-31.9c-5.1-25.8-15.2-49.7-29.8-71.6c-15.8-23.6-35.7-43.2-59.6-58.6c-16.2-10.5-33.6-18.5-52.1-23.8
		c-7.6-2.2-15.4-3.6-23.2-5.2c-13.9-2.8-28-3.7-42.2-2.9c-7.8,0.4-15.6,1.1-23.3,2.3c-16.4,2.6-32.3,7.2-47.7,13.7
		c-20.8,8.9-39.6,20.8-56.3,35.9c-23.6,21.3-41.3,46.8-53.1,76.3c-4.6,11.7-8.1,23.7-10.4,36.1c-2.9,15.6-4.3,31.3-3.5,47.1
		c0.6,13.1,2.3,26.1,5.5,38.9c4.8,19.7,12.3,38.2,22.7,55.6c17.8,29.8,41.7,53.6,71.5,71.4c13,7.7,26.7,14.1,41.2,18.4
		c8.2,2.4,16.5,4.6,24.9,6.3c6.6,1.4,13.4,1.9,20.1,2.7C240.2,458.4,241.1,458.3,242.3,458.3z"/>
	<path class="st0" d="M265.2,98.1c5.1,0.6,15.2,1.4,25.1,3.3c7.5,1.4,15,3.8,22.1,6.6c10.3,3.9,20.1,9.1,29,15.7
		c6.7,5,12.8,10.7,18.9,16.4c4.4,4.1,3.6,12.5-0.9,16.5c-3.9,3.5-8.1,3.4-12.6,1.9c-0.9-0.3-1.6-1-2.3-1.6
		c-5.5-4.6-10.7-9.5-16.6-13.6c-5.9-4.1-12.4-7.5-18.7-11c-2.3-1.3-4.7-2.3-7.2-3c-5.8-1.8-11.7-3.3-17.5-4.9
		c-7.7-2.2-15.7-2.7-23.6-2.6c-7.9,0.1-15.8,1.5-23.7,2.4c-1.6,0.2-3.1,0.5-4.6,0.9c-7,2.2-14.1,4.2-20.8,7
		c-9.2,3.9-17.7,9.3-25.5,15.6c-3.3,2.6-6.4,5.5-9.3,8.5c-4.7,4.9-12.2,3.8-15.3,1c-5.2-4.7-6.3-11.3-2-16.5
		c3.3-3.9,7.3-7.4,11.2-10.7c7.4-6.3,15.6-11.5,24.2-15.9c5.9-3,12.2-5.5,18.4-7.8C228.6,100.3,244.3,98.4,265.2,98.1z"/>
	<path class="st0" d="M263.5,139.6c3.7,0.4,10.6,0.4,17.2,1.9c7.3,1.6,14.7,3.6,21.4,7.3c4.7,2.6,9.7,5,14.2,7.9
		c6.3,4.1,12.3,8.6,16.6,14.8c2.2,3.1,2.1,6.9,0.3,10.2c-2.4,4.6-6.2,7.8-11.8,6.9c-2.4-0.4-5.2-1.3-6.9-3
		c-8.3-8.2-17.9-14.3-28.9-18.2c-11.8-4.2-24-5.6-36.3-3.7c-8.6,1.3-17,3.7-24.6,8.1c-5.7,3.4-11,7.6-16.4,11.5
		c-1.6,1.2-3,2.7-4.7,3.9c-5.3,3.7-11.7,1-15.1-3.2c-2.8-3.4-3-11.1,1.1-15.1c8.2-7.9,17.2-14.7,27.6-19.6c6.3-3,12.8-5,19.5-6.9
		C244.6,140.3,252.5,139.8,263.5,139.6z"/>
	<path class="st0" d="M260.2,289.4c-18.4,0-33.2-14.7-33.3-33.1c-0.1-18.5,14.7-33.4,33.1-33.4c18.4,0,33.4,14.9,33.3,33.3
		C293.4,274.5,278.5,289.3,260.2,289.4z"/>
	<path class="st0" d="M260.4,177.6c3.8,0.3,7.7,0.1,11.3,1c5.1,1.3,10.1,3.1,14.9,5.1c7.3,3.1,13.4,7.9,18.6,13.7
		c2.5,2.7,2.4,10,0.1,13c-4.9,6.6-12.1,6.2-16.8,3.2c-1.1-0.7-1.9-1.9-2.9-2.7c-6.9-6-15-9.3-24.1-9.6c-7.6-0.3-14.9,1.3-21.3,5.8
		c-2.9,2-5.7,4.2-8.3,6.5c-5.8,5.1-16.3,1.3-18.2-6.8c-1.3-5.7,1.2-9.8,5.4-13.4c5.8-5,12-9.3,19.2-11.7
		C245.5,179.2,252.7,177,260.4,177.6z"/>
</g>
</svg>
